<svg xmlns="http://www.w3.org/2000/svg" viewBox="0 0 400 400"><defs><style>.cls-1{fill:#85bb65;}.cls-2{fill:#fff;}.cls-3{fill:none;}</style></defs><title>icon_bch</title><g id="レイヤー_2" data-name="レイヤー 2"><g id="ロゴ"><circle class="cls-1" cx="200" cy="200" r="199.99"/><path class="cls-2" d="M303.92,273l-2.15,4.51c-5.43,11.4-18.66,19.36-32.18,19.36-10.76,0-20-4.09-26.7-11.83-7.5-8.65-11.46-21.59-11.46-37.42,0-14.76,3.87-27.19,11.19-36a34.34,34.34,0,0,1,26.77-12.53c12.81,0,25.33,7.57,30.46,18.41l2,4.3,23.37-21.39-1.09-2.3c-9-18.94-30.89-30.71-57.06-30.71-43.7,0-73.07,32.22-73.07,80.17,0,49.39,28.76,81.31,73.26,81.31,26,0,47.62-11.57,57.95-30.95l1.19-2.23Z"/><path class="cls-2" d="M186.16,247.58a117.39,117.39,0,0,1,1.07-16c-13.75,8.76-39.71,7.1-49.94,7.05v-46.1c12.37.07,47.7-2.82,56.68,14.27a79.83,79.83,0,0,1,14.35-22.46,75.52,75.52,0,0,1,5.67-5.6,63.35,63.35,0,0,0-6.55-2c12.16-6.12,19.76-17,18-35.13h0c-2.38-24.82-23.83-33.25-50.9-35.76V71.43l-21-.11v33.5c-5.51,0-11.15,0-16.75.13V71.23l-21-.11v34.4c-4.54.07-9,.13-13.35.11v-.11l-28.93-.17v22.37s15.49-.21,15.23.07c8.49,0,11.26,5,12.06,9.24l0,94.25c-.37,2.67-1.95,6.92-7.88,6.89.27.24-15.25-.09-15.25-.09l-4.17,25,27.29.15c5.08,0,10.08.15,15,.2v34.8l20.95.12V263.91c5.75.15,11.32.23,16.75.25v34.27l21,.11V263.8c4.36-.23,8.55-.56,12.56-1A125,125,0,0,1,186.16,247.58Zm-48.85-118c11.84.06,49-3.5,49,21.18,0,23.66-37.2,20.7-49,20.64Z"/></g><g id="切り取り枠線"><rect class="cls-3" width="400" height="400"/></g></g></svg>