<svg xmlns="http://www.w3.org/2000/svg" xmlns:xlink="http://www.w3.org/1999/xlink" viewBox="0 0 400 400"><defs><style>.cls-1{fill:url(#名称未設定グラデーション);}.cls-2{fill:#fff;}.cls-3{fill:none;}</style><linearGradient id="名称未設定グラデーション" y1="200" x2="400" y2="200" gradientUnits="userSpaceOnUse"><stop offset="0" stop-color="#f9aa4b"/><stop offset="1" stop-color="#f7931a"/></linearGradient></defs><title>icon_btc</title><g id="レイヤー_2" data-name="レイヤー 2"><g id="ロゴ"><circle class="cls-1" cx="200" cy="200" r="200"/><path class="cls-2" d="M288.16,171.5c4-26.62-16.28-40.92-44-50.47l9-36.06L231.21,79.5l-8.75,35.11c-5.77-1.44-11.7-2.79-17.58-4.14l8.81-35.34-21.93-5.47-9,36c-4.78-1.09-9.46-2.16-14-3.29l0-.11L138.5,94.74l-5.84,23.44s16.28,3.73,15.94,4c8.89,2.22,10.5,8.1,10.23,12.76L148.59,176a18.17,18.17,0,0,1,2.28.73l-2.32-.58L134.2,233.68c-1.09,2.7-3.84,6.75-10.06,5.21.22.32-16-4-16-4L97.3,260l28.56,7.12c5.31,1.33,10.52,2.73,15.65,4l-9.08,36.47,21.92,5.47,9-36.08c6,1.63,11.8,3.13,17.49,4.54l-9,35.91L193.81,323l9.08-36.4c37.42,7.08,65.57,4.23,77.41-29.62,9.55-27.25-.47-43-20.17-53.23,14.34-3.31,25.14-12.74,28-32.22ZM238,241.81c-6.78,27.25-52.67,12.52-67.55,8.83l12.05-48.31c14.88,3.71,62.58,11.06,55.5,39.49Zm6.79-70.71c-6.19,24.79-44.38,12.2-56.77,9.11L199,136.39C211.35,139.48,251.25,145.24,244.81,171.1Z"/></g><g id="切り取り枠線"><rect class="cls-3" width="400" height="400"/></g></g></svg>