<svg xmlns="http://www.w3.org/2000/svg" viewBox="0 0 400 400"><defs><style>.cls-1{fill:#1c75bc;}.cls-2{fill:#fff;}.cls-3{fill:none;}</style></defs><title>icon_dash</title><g id="レイヤー_2" data-name="レイヤー 2"><g id="ロゴ"><path class="cls-1" d="M204.84,400h-9.65a6.81,6.81,0,0,0-1.12-.28c-6.35-.5-12.74-.69-19-1.54-7.33-1-14.65-2.26-21.85-3.94a193.77,193.77,0,0,1-53.61-21.4A200.49,200.49,0,0,1,1.36,223.38c-.71-6-1-12.15-1.23-18.23a163.36,163.36,0,0,1,1-26.11c.84-6.81,2-13.61,3.32-20.34a193.68,193.68,0,0,1,15.64-45.93A199,199,0,0,1,76.83,42.63a200.81,200.81,0,0,1,65.32-33.9,194.72,194.72,0,0,1,36.08-7.39C183.44.78,188.7.63,193.95.28A8.06,8.06,0,0,0,195.19,0h9.65A6.29,6.29,0,0,0,206,.28c4.08.26,8.19.31,12.24.79,6.91.82,13.86,1.6,20.68,2.93a199.84,199.84,0,0,1,143,113.09,199.62,199.62,0,0,1,15.89,53.35,195.06,195.06,0,0,1,2.13,24.69,188,188,0,0,1-1.28,28.11c-.8,6.18-1.84,12.34-3.1,18.44a194,194,0,0,1-14.76,43.87,196.65,196.65,0,0,1-26.23,41.32,200.93,200.93,0,0,1-96.69,64.41,195.79,195.79,0,0,1-36.07,7.39c-5.22.56-10.48.71-15.72,1.06A8,8,0,0,0,204.84,400ZM110.56,162.27H276c-.16.57-.25.94-.37,1.31-.78,2.38-1.57,4.75-2.35,7.13q-11.45,35-22.88,70c-.27.83-.65,1.2-1.53,1.09a8.31,8.31,0,0,0-1.08,0q-80.82,0-161.64,0c-1.23,0-1.82.29-2.22,1.53-3.81,11.82-7.7,23.62-11.57,35.42-.33,1-.61,2-1,3.25h2.1q90.47,0,180.94,0a40.84,40.84,0,0,0,13-2.1A65.35,65.35,0,0,0,288.77,268c9.57-8,16.77-17.57,20.59-29.57,7.5-23.54,15.2-47,22.93-70.48,2.21-6.72,4.16-13.41,3.13-20.6-.61-4.31-1.55-8.54-3.92-12.26-5.42-8.52-13.48-12.74-23.5-12.76q-91.32-.15-182.63-.08a2,2,0,0,0-2.31,1.72c-3.66,11.33-7.39,22.63-11.1,33.95C111.5,159.29,111.07,160.67,110.56,162.27Zm65.78,21.2H79.73c-1.86,0-1.86,0-2.49,1.8q-4,11.63-8.06,23.26c-1.27,3.67-2.55,7.34-3.86,11-.33.93-.16,1.37.9,1.28.2,0,.4,0,.6,0q47.64,0,95.29,0a2,2,0,0,0,2.27-1.66c3.8-11.32,7.66-22.62,11.49-33.93C176,184.73,176.15,184.19,176.34,183.47Z"/><path class="cls-2" d="M110.56,162.27c.51-1.6.95-3,1.4-4.37,3.71-11.31,7.44-22.62,11.1-33.95a2,2,0,0,1,2.31-1.72q91.32.06,182.63.08c10,0,18.08,4.24,23.5,12.76,2.37,3.72,3.3,8,3.92,12.26,1,7.18-.92,13.87-3.13,20.6-7.73,23.46-15.43,46.94-22.93,70.48-3.82,12-11,21.58-20.59,29.57a65.35,65.35,0,0,1-21.39,11.91,40.84,40.84,0,0,1-13,2.1q-90.47,0-180.94,0h-2.1c.37-1.23.66-2.25,1-3.25,3.86-11.8,7.75-23.6,11.57-35.42.4-1.24,1-1.53,2.22-1.53q80.82,0,161.64,0a8.31,8.31,0,0,1,1.08,0c.88.12,1.26-.26,1.53-1.09q11.41-35,22.88-70c.78-2.38,1.57-4.75,2.35-7.13.12-.37.21-.74.37-1.31Z"/><path class="cls-2" d="M176.34,183.47c-.19.72-.3,1.26-.47,1.78-3.83,11.31-7.69,22.61-11.49,33.93a2,2,0,0,1-2.27,1.66q-47.64-.06-95.29,0c-.2,0-.4,0-.6,0-1.06.09-1.24-.35-.9-1.28,1.31-3.66,2.59-7.33,3.86-11q4-11.63,8.06-23.26c.62-1.8.63-1.8,2.49-1.8h96.61Z"/></g><g id="切り取り枠線"><rect class="cls-3" width="400" height="400"/></g></g></svg>