<svg xmlns="http://www.w3.org/2000/svg" viewBox="0 0 400 400"><defs><style>.cls-1{fill:#4f8658;}.cls-2{fill:#4f9b58;}.cls-3{fill:#4fa158;}.cls-4{fill:#4fb858;}.cls-5{fill:none;}</style></defs><title>icon_etc</title><g id="レイヤー_2" data-name="レイヤー 2"><g id="ロゴ"><polygon class="cls-1" points="200 263.12 200 225.41 111.82 197.57 200 263.12"/><polygon class="cls-2" points="111.82 197.57 200 225.41 200 158.49 111.82 197.57"/><polygon class="cls-3" points="200 263.12 200 225.41 288.18 197.57 200 263.12"/><polygon class="cls-4" points="288.18 197.57 200 225.41 200 158.49 288.18 197.57"/><path class="cls-4" d="M309.3,172.92a10.48,10.48,0,0,0-1.71.17L208.67,16.6a10.57,10.57,0,1,0-17.34,0L92.41,173.1a10.45,10.45,0,0,0-1.71-.17,10.57,10.57,0,1,0,10.57,10.57c0-.26-.06-.5-.08-.75l92.06-47.15a10.35,10.35,0,0,0,13.48,0l92.06,47.15c0,.25-.08.5-.08.75a10.57,10.57,0,1,0,10.57-10.57ZM200,4.13a6.46,6.46,0,1,1-6.46,6.46A6.46,6.46,0,0,1,200,4.13ZM90.71,190a6.46,6.46,0,1,1,6.45-6.46A6.46,6.46,0,0,1,90.71,190ZM195.89,24.79v93a10.59,10.59,0,0,0-6.46,9.74c0,.26.06.5.08.75L102.22,173ZM200,134a6.46,6.46,0,1,1,6.45-6.46A6.46,6.46,0,0,1,200,134Zm10.49-5.7c0-.25.08-.49.08-.75a10.59,10.59,0,0,0-6.45-9.74v-93L297.78,173ZM309.3,190a6.46,6.46,0,1,1,6.45-6.46A6.46,6.46,0,0,1,309.3,190Z"/><path class="cls-4" d="M309.3,203.53a10.58,10.58,0,0,0-10.57,10.57,10.44,10.44,0,0,0,.38,2.64L206.3,288a10.37,10.37,0,0,0-12.59,0l-92.8-71.23a10.46,10.46,0,0,0,.37-2.64,10.57,10.57,0,1,0-10.57,10.57,10.45,10.45,0,0,0,1.64-.17l99,158.84a10.57,10.57,0,1,0,17.26,0l99-158.84a10.45,10.45,0,0,0,1.64.17,10.57,10.57,0,0,0,0-21.14ZM200,290a6.46,6.46,0,1,1-6.46,6.46A6.46,6.46,0,0,1,200,290ZM84.25,214.1a6.46,6.46,0,1,1,6.46,6.46A6.46,6.46,0,0,1,84.25,214.1Zm105.31,81.06a10.33,10.33,0,0,0-.13,1.25,10.59,10.59,0,0,0,6.46,9.74V375L106.2,231.18ZM200,395.87a6.46,6.46,0,1,1,6.45-6.46A6.46,6.46,0,0,1,200,395.87ZM204.11,375V306.15a10.59,10.59,0,0,0,6.45-9.74,10.29,10.29,0,0,0-.13-1.25l83.36-64ZM309.3,220.56a6.46,6.46,0,1,1,6.45-6.46A6.47,6.47,0,0,1,309.3,220.56Z"/></g><g id="切り取り枠線"><rect class="cls-5" width="400" height="400"/></g></g></svg>