<svg xmlns="http://www.w3.org/2000/svg" viewBox="0 0 400 400"><defs><style>.cls-1{isolation:isolate;}.cls-2{fill:#e8b41f;}.cls-3{fill:#d27c40;}.cls-4{fill:#3f7ba3;}.cls-5{fill:none;}</style></defs><title>icon_fct</title><g id="レイヤー_2" data-name="レイヤー 2"><g id="ロゴ"><g class="cls-1"><path class="cls-2" d="M158.85,350.47a78.45,78.45,0,0,0-10.55,16.71,78.45,78.45,0,0,1,10.55-16.71"/></g><path class="cls-3" d="M185.22.53c5-.22,11.57-.51,16.54-.53,17.52.07,26.68,6.93,23.09,20.38-4.4,16.51-26.94,38.92-57.2,59-5.72,2.72-11.61-5-10.4-8.28a3.83,3.83,0,0,1,1-1.25c26.43-17.53,46.1-37.09,49.95-51.51,3.6-13.5-7.5-19.39-27.47-17.42l4.52-.38"/><path class="cls-2" d="M287.27,20c10.16,4.72,14.39,13.44,11,26.1C288.17,84,213.75,142.77,132,177.39a390.73,390.73,0,0,1-43.67,15.7c-7.37,1.07-8.57-9.6-5.48-14a6.24,6.24,0,0,1,2.95-2.27A367.82,367.82,0,0,0,126.94,162c76.92-32.6,147-87.94,156.49-123.62,3.44-12.9-1.51-21.47-12.87-25.6,5,2.1,11.77,4.84,16.71,7.15"/><path class="cls-2" d="M375.74,104.3,378.2,109c2.37,6.5,2.37,6.5,2.41,10.42a1.15,1.15,0,0,1-.32.68c-2.23-.75-7.63-11-8.14-15.49a22.41,22.41,0,0,0-3.41-12.14l7,11.87"/><path class="cls-4" d="M393.69,149.53c1.16,4.44,1,9.64-.57,15.57-10,37.35-73.56,92.12-150.54,132.53-8.6,3.59-13.86-2.9-11.81-8.43a9.45,9.45,0,0,1,4.4-4.85c78.26-41.07,142.92-96.76,153-134.72,1.84-6.9,1.77-12.81,0-17.73,1.68,5.28,4.08,12.28,5.5,17.64"/><path class="cls-3" d="M399.61,185.16l.37,6.43a32.93,32.93,0,0,1-1.22,9.76c-6.1,22.87-33.75,52.75-72.34,81.24-6.25,3.82-9-1.7-8.06-6.14a11.62,11.62,0,0,1,4.06-6.51c40-29.51,68.59-60.44,74.91-84.12a31.87,31.87,0,0,0,1.07-12.36l1.21,11.7"/><path class="cls-4" d="M117.72,338c-.79-1.48-5.08-6.95-11.62-6.59-32.37,5.33-55.59,2-65-9.87-.16-.21-.34-.39-.5-.6l.31.41c1.69,2.19,3.75,4.67,5.84,7.14s4.17,5,6,7.08C62.71,346.16,85,349,115.61,344,119.58,342.81,118.63,339.76,117.72,338Z"/><path class="cls-3" d="M211.13,341.67c.52,1.23,1.17,4.37-4,6.93-58.39,23.11-104.18,27.85-122.54,14.89-4.29-3.28-10.09-7.56-14.23-11,17.82,15,66.25,10.49,128.53-14.16,9.18-2.83,12.24,3.31,12.27,3.38"/><path class="cls-4" d="M399.28,218.44c-.62,4.69-1.28,11-2.09,15.64q-.26,1.44-.66,2.95c-9.79,36.7-81.86,93.63-161,127.16C184.08,386,142.3,392.54,122.09,384.33c-5-2.32-11.65-5.33-16.52-7.88C175,405.37,389.28,288.27,399.51,215.81l-.23,2.63"/><path class="cls-2" d="M385,276.29c-29.85,61-166.82,129.25-221.35,120.5-5.66-1.25-13.21-2.9-18.81-4.42,19.5,5.56,55.88-.82,100.11-19.56C316.13,342.64,381,291.74,391.46,258.21c-1.87,5.45-4.12,12.81-6.45,18.08"/><path class="cls-4" d="M341.07,337.53a24.08,24.08,0,0,1-4.71,5.53c-19.07,15.34-44.21,30.52-70.57,41.69-22.21,9.41-41.63,14.43-56,15.16-6.24.12-14.56.12-20.79-.09,16.66.9,41.68-4.77,71-17.19,29.86-12.66,58.35-29.85,80-47.24a8.46,8.46,0,0,1,1.66-.88l.43.79a14.55,14.55,0,0,1-1,2.21"/><path class="cls-2" d="M14.41,180.62a20.18,20.18,0,0,1-7.32-6C4.6,171.26,3.56,167,4,161.91c.33-1.81.52-3.65.91-5.45q-.23.85-.4,1.67l-1.41,7.19L1.47,176.14h0a26.35,26.35,0,0,0-.2,4.24c0,.67.16,1.27.24,1.91,0,.36.07.73.14,1.08a18.42,18.42,0,0,0,1.27,4.34c.11.23.27.43.39.66s.34.57.5.86a17.21,17.21,0,0,0,.92,1.57c0-.11,0-.22,0-.33a20.86,20.86,0,0,0,7.72,6.66c1.73.27,2.63-2.84,3.08-5.49C15.6,191.55,16.93,182.87,14.41,180.62Z"/><path class="cls-3" d="M323.58,42.59l-8-6L308.71,32c3.54,2.61,10.13,7.46,9.56,18.93C315,116.66,60.47,273.28,3.72,212.52A19.85,19.85,0,0,1,0,200.47c0,5,.47,11.48.76,16.73,0,.07,0,.13,0,.19,0,.39,0,.83.07,1.2,0,.09,0,.16.05.25,0,.37.14.7.2,1.05,0-.13,0-.26,0-.39.07.54.24,1,.34,1.56-.08-.4-.23-.76-.29-1.17a21.16,21.16,0,0,0,.77,3.33c.13.4.22.82.37,1.2.08.2.15.39.23.58-.06-.13-.09-.29-.14-.42a19,19,0,0,0,1,1.9c-.27-.5-.65-.94-.88-1.48a19.18,19.18,0,0,0,2.14,3.82c0-.08,0-.17,0-.25C19.06,248.78,74.2,244.32,145.86,214,236.52,175.53,319.1,110.3,330.31,68.25,333.38,56.76,330.79,48.19,323.58,42.59Z"/><path class="cls-4" d="M354,72.24c-3.55-4.22-8.64-9.55-12.37-13.61,5.9,5.8,7.79,14.1,4.92,24.86C334.94,127.21,249.1,195,154.86,235c-73.9,31.32-131,36.2-146.61,15.77L8,250.41a20.21,20.21,0,0,1-3.46-7.76c1.21,5.38,3.28,12.44,4.74,17.76a13.5,13.5,0,0,0,2.83,5.7l.12.16.07.09h0l.06.08,0,0,.16.22,0-.07c15.85,20.9,74.12,16,149.57-16,96.13-40.74,183.69-109.91,195.58-154.5C360.36,86,359,78.06,354,72.24Z"/><path class="cls-4" d="M148,6.85c-2.86.77-4,1.08-6.58,1.91s-3.63,1.12-6.39,2.07-4.48,1.59-6.44,2.35c-2.12.79-3.59,1.39-6.56,2.64-2.2.93-3.05,1.3-5.1,2.25s-2.8,1.28-4.87,2.3-2.73,1.34-4.6,2.34-2.58,1.35-4.5,2.42-2.6,1.45-4.4,2.52S96,29.12,94.19,30.27s-2.61,1.63-4.4,2.83-2.53,1.68-4.43,3-2.78,1.95-4.65,3.37-2.65,2-4.62,3.53C73.84,44.8,73,45.45,71,47.18s-2.91,2.47-5.07,4.42A100,100,0,0,0,54.8,63.23a45.07,45.07,0,0,0-6.06,9.6,23.19,23.19,0,0,0-1.2,3.36,16.45,16.45,0,0,0-.43,2.18,9.24,9.24,0,0,0,1.52,6.84C54.81,93.63,78,91.7,108.09,79A236.6,236.6,0,0,0,135.65,65c1.94-1.65.58-4.15-.1-5.15s-3.79-4.54-6.52-3.55A188,188,0,0,1,107.12,67.4c-23.91,10.13-42.36,11.67-47.27,5-1.32-1.8-1.66-4.19-.87-7.18s2.83-6.61,5.77-10.3A94.47,94.47,0,0,1,79.88,40.41a234.2,234.2,0,0,1,45.3-25.55c2.62-1.11,5.09-2,7.6-2.95,23.74-7.77,39.3-5.38,36.06,6.73-1,3.71-3.64,8-7.66,12.75,1.73,1.75,11,3.85,15,1.89,4.93-5.64,8.27-11,9.51-15.65C189.43,3.72,173.5,0,148,6.85Z"/><path class="cls-3" d="M92,102.55c-28.73,9.52-50,9.72-56.47.91-2.09-2.85-2.64-6.65-1.38-11.37A37.44,37.44,0,0,1,38.5,82.6c1.55-2.3,3.06-4.64,4.78-6.82l-.05.06-2.75,3.56c-1.48,2-3.15,4.4-4.8,6.8s-3.23,4.67-4.55,6.71-2.81,4.91-3.87,7.09a33.39,33.39,0,0,0-1.73,4.84,23.67,23.67,0,0,0-.62,3.15,24,24,0,0,0,.19,5.34c0,.1.07.19.09.3a12.3,12.3,0,0,0,1.92,4.23l.16.22c6.66,7.76,20.55,7.86,31,6.58,36.54-4.48,37.09-10.79,37.45-15C95.76,109.62,96.16,102,92,102.55Z"/><path class="cls-4" d="M250.56,6.62c-2-.56-4-1.13-7.69-1.89-4.71-1-4.9-1-6.7-.84,9.35,3.43,13.42,10.52,10.58,21.17-7.88,29.55-65.92,75.4-129.64,102.4-50.21,21.28-89,24.5-99.28,10.46-2.78-3.78-3.49-8.81-1.82-15.07a40,40,0,0,1,2.52-6.73c-2.33,5.22-5.07,12.33-7.15,17.65q-.59,1.63-1,3.21a29.83,29.83,0,0,0-.79,4c-.63,5,.36,9.2,2.78,12.5C23.63,168.82,66,165.29,120.95,142c69.7-29.54,133.19-79.69,141.81-112C265.87,18.34,261.42,10.59,250.56,6.62Z"/><path class="cls-2" d="M28.22,302.31s-.83-.6-3.33-6v0l-.29-.55q-2.23-4.24-4.21-8.55c15.79,21.51,75.11,16.57,152-16,57.74-24.47,112.43-59,150-92.58,6.54-3.45,9.34,1.86,10.25,4.3,2,5.29-.35,8.51-1.87,10.64-37.59,33.59-92.38,68.23-150.22,92.74C108.49,316.78,52,323,32,306.1a38,38,0,0,1-3.8-3.79"/><path class="cls-2" d="M28.22,302.31"/></g><g id="切り取り枠線"><rect class="cls-5" width="400" height="400"/></g></g></svg>