<svg xmlns="http://www.w3.org/2000/svg" viewBox="0 0 400 400"><defs><style>.cls-1{fill:#3d3e3c;}.cls-2{fill:#fff;}.cls-3{fill:#b6b7ba;}.cls-4{fill:none;}</style></defs><title>icon_ltc</title><g id="レイヤー_2" data-name="レイヤー 2"><g id="ロゴ"><circle class="cls-1" cx="200" cy="200" r="200"/><circle class="cls-2" cx="200" cy="200" r="176.01"/><path class="cls-3" d="M200,56.58A143.31,143.31,0,0,0,78.93,123.09L241.57,62.71A143.4,143.4,0,0,0,200,56.58Z"/><path class="cls-3" d="M117,317l222.22-82.5A143.72,143.72,0,0,0,343.42,200c0-.33,0-.66,0-1L90.69,292.84A144.25,144.25,0,0,0,117,317Z"/><path class="cls-3" d="M282.74,82.84,60.83,165.23A143.69,143.69,0,0,0,56.58,200c0,.25,0,.49,0,.73L309.15,107A144.23,144.23,0,0,0,282.74,82.84Z"/><path class="cls-3" d="M200,343.42a143.31,143.31,0,0,0,121.29-66.85L158,337.18A143.39,143.39,0,0,0,200,343.42Z"/><path class="cls-3" d="M60.79,234.59a142.43,142.43,0,0,0,11,29.83l267.32-99.25a142.4,142.4,0,0,0-11.1-29.81Z"/><polygon class="cls-1" points="104.02 298.73 118.27 242.67 95.26 251.21 109.71 194.34 132.72 185.8 160.05 78.28 249.33 78.28 231.3 149.2 258.21 139.21 243.76 196.08 216.85 206.07 209.53 234.84 309.81 234.84 293.57 298.73 104.02 298.73"/><polygon class="cls-2" points="194.68 246.4 207.14 197.35 234.05 187.36 241.59 157.71 214.68 167.7 234.47 89.83 169.04 89.83 142.43 194.52 119.42 203.06 111.88 232.71 134.89 224.17 118.88 287.18 119.35 287.18 184.31 287.18 284.58 287.18 294.95 246.4 194.68 246.4"/></g><g id="切り取り枠線"><rect class="cls-4" width="400" height="400"/></g></g></svg>