<svg xmlns="http://www.w3.org/2000/svg" viewBox="0 0 400 400"><defs><style>.cls-1{fill:#fff;}.cls-1,.cls-2{fill-rule:evenodd;}.cls-2{fill:#5f2652;}.cls-3{fill:none;}</style></defs><title>icon_rep</title><g id="レイヤー_2" data-name="レイヤー 2"><g id="ロゴ"><path class="cls-1" d="M272.94,205.72A77.12,77.12,0,0,0,251.1,173.2l0,0q-1.8-1.59-3.7-3.07l-.15-.12q-1.86-1.44-3.8-2.76l-.25-.18q-1.91-1.29-3.9-2.47l-.34-.2q-2-1.15-4-2.19l-.41-.2q-2-1-4.12-1.91l-.45-.19c-1.22-.51-2.45-1-3.7-1.46v0a76.49,76.49,0,0,0-10.5-3,54.92,54.92,0,0,1-10.82,14,61.9,61.9,0,0,1,28.33,9.51l.48.3c.8.52,1.58,1.08,2.35,1.64.35.26.72.5,1.07.76.7.52,1.37,1.08,2,1.63.4.33.81.66,1.2,1,.63.54,1.23,1.1,1.83,1.66.41.39.83.77,1.23,1.17.56.56,1.11,1.13,1.66,1.71s.81.88,1.21,1.33,1,1.16,1.5,1.76.78,1,1.16,1.47.91,1.2,1.35,1.81.74,1.07,1.1,1.61.81,1.22,1.2,1.85.69,1.17,1,1.76.71,1.23,1,1.86.64,1.29,1,1.95.6,1.21.88,1.83c.35.79.66,1.6,1,2.41a60.85,60.85,0,0,1,3.58,13.38h0l1.94,7.34c.81,3.06,8.44,30.1,26,39.21,20.17,10.46,46.89,23.55,57.4,28.66L207.72,380V323.08c0-9,17.87-19.48,26.12-23.18l.49-.27h0c1.71-.85,3.38-1.78,5-2.75l.69-.38,0,0a77.44,77.44,0,0,0,10.19-7.4l0,0c.3-.26.58-.52.87-.78l1-.88q1.51-1.38,2.95-2.83l.41-.4c1-1.08,2.06-2.2,3-3.34.3-.34.59-.69.88-1q1.18-1.41,2.28-2.88c.21-.28.43-.55.63-.82.89-1.2,1.73-2.44,2.55-3.69l.26-.38v0c1.11-1.74,2.17-3.51,3.15-5.34a80.51,80.51,0,0,1-9.94-15.57,61,61,0,0,1-4.1,9.15q-1,1.89-2.2,3.7l-.33.48q-1,1.53-2.11,3l-.64.84q-1.1,1.43-2.29,2.78l-.42.5a61.86,61.86,0,0,1-18,14l-1.31.68c-3.52,1.57-34.55,15.58-34.55,36.87V380L53.09,296.74c9-5.55,35.12-21.1,56.64-27.87,8.36-2.63,26.29,8.58,36.42,16.93l.61.54,0,0c1.33,1.27,2.73,2.47,4.15,3.65l.51.45,0,0a77.38,77.38,0,0,0,10.23,7h0c.8.46,1.61.9,2.42,1.33l.48.25a77,77,0,0,0,7.18,3.27l1,.41.74.29v0a76.07,76.07,0,0,0,10.81,3.1,54.28,54.28,0,0,1,11-14,61.49,61.49,0,0,1-17.19-3.81l-.94-.35c-.61-.24-1.22-.5-1.82-.76l-.92-.4c-.6-.27-1.19-.56-1.77-.85a61.78,61.78,0,0,1-11.53-7.37l-5.54-5a101.91,101.91,0,0,0-16.44-11.74c-13.77-7.83-25.24-10.38-34.09-7.6-18.4,5.79-39.13,17-51.79,24.44l139-249.41V138.46c0,3.87-5.72,14-24.82,22.56l-1.33.71,0,0c-1.85.91-3.66,1.9-5.43,2.94l-.37.2v0a77.64,77.64,0,0,0-10.25,7.35h0l-.07.06a77.68,77.68,0,0,0-5.78,5.45l-.18.19a77.25,77.25,0,0,0-5.11,5.94l-.21.27q-1.16,1.51-2.24,3.07l-.25.38q-1,1.46-1.93,3l-.21.32q-.94,1.54-1.81,3.13l-.41.76c-.54,1-1.06,2-1.55,3l-.23.48c-.45,1-.88,1.94-1.3,2.93l-.44,1.07c-.41,1-.8,2-1.17,3.09-.13.36-.24.73-.37,1.1q-.39,1.17-.75,2.35c-.13.44-.26.87-.39,1.31q-.42,1.51-.78,3c-.12.49-.22,1-.33,1.49q-.23,1.07-.43,2.16c-.12.63-.23,1.27-.33,1.91q-.2,1.29-.37,2.59-.1.84-.19,1.68c-.08.77-.14,1.54-.2,2.31s-.1,1.54-.13,2.31c0,.48,0,.95-.06,1.43h0c0,.58,0,1.16,0,1.74a77,77,0,0,0,.86,11.43A77.76,77.76,0,0,1,141,248.78a61.31,61.31,0,0,1-2.67-17h0c0-.35,0-.69,0-1,0-1.39.06-2.76.15-4.12,0-.36.05-.72.08-1.08.1-1.2.23-2.39.4-3.58,0-.16,0-.33.06-.5.2-1.32.45-2.62.73-3.92.07-.33.15-.66.23-1q.39-1.63.85-3.22c.07-.23.13-.47.2-.7q.58-1.87,1.27-3.69c.11-.28.22-.55.33-.83q.6-1.52,1.29-3l.34-.75q.84-1.77,1.79-3.47l.33-.57q.84-1.47,1.77-2.9l.44-.68c.73-1.1,1.5-2.18,2.3-3.23l.16-.2c.76-1,1.56-2,2.38-2.9l.47-.54A62,62,0,0,1,166.71,179l6.61-3.23c3.52-1.57,34.4-16,34.4-37.28V29.23L347.77,280.55c-12.52-6.12-34.47-17-51.62-25.84-9.81-5.09-16.48-23-18.22-29.5L276,217.68h0a75.9,75.9,0,0,0-3.07-11.92h0l0,0Z"/><path class="cls-2" d="M272.94,205.72A77.12,77.12,0,0,0,251.1,173.2l0,0q-1.8-1.59-3.7-3.07l-.15-.12q-1.86-1.44-3.8-2.76l-.25-.18q-1.91-1.29-3.9-2.47l-.34-.2q-2-1.15-4-2.19l-.41-.2q-2-1-4.12-1.91l-.45-.19c-1.22-.51-2.45-1-3.7-1.46v0a76.49,76.49,0,0,0-10.5-3,54.92,54.92,0,0,1-10.82,14,61.9,61.9,0,0,1,28.33,9.51l.48.3c.8.52,1.58,1.08,2.35,1.64.35.26.72.5,1.07.76.7.52,1.37,1.08,2,1.63.4.33.81.66,1.2,1,.63.54,1.23,1.1,1.83,1.66.41.39.83.77,1.23,1.17.56.56,1.11,1.13,1.66,1.71s.81.88,1.21,1.33,1,1.16,1.5,1.76.78,1,1.16,1.47.91,1.2,1.35,1.81.74,1.07,1.1,1.61.81,1.22,1.2,1.85.69,1.17,1,1.76.71,1.23,1,1.86.64,1.29,1,1.95.6,1.21.88,1.83c.35.79.66,1.6,1,2.41a60.85,60.85,0,0,1,3.58,13.38h0l1.94,7.34c.81,3.06,8.44,30.1,26,39.21,20.17,10.46,46.89,23.55,57.4,28.66L207.72,380V323.08c0-9,17.87-19.48,26.12-23.18l.49-.27h0c1.71-.85,3.38-1.78,5-2.75l.69-.38,0,0a77.44,77.44,0,0,0,10.19-7.4l0,0c.3-.26.58-.52.87-.78l1-.88q1.51-1.38,2.95-2.83l.41-.4c1-1.08,2.06-2.2,3-3.34.3-.34.59-.69.88-1q1.18-1.41,2.28-2.88c.21-.28.43-.55.63-.82.89-1.2,1.73-2.44,2.55-3.69l.26-.38v0c1.11-1.74,2.17-3.51,3.15-5.34a80.51,80.51,0,0,1-9.94-15.57,61,61,0,0,1-4.1,9.15q-1,1.89-2.2,3.7l-.33.48q-1,1.53-2.11,3l-.64.84q-1.1,1.43-2.29,2.78l-.42.5a61.86,61.86,0,0,1-18,14l-1.31.68c-3.52,1.57-34.55,15.58-34.55,36.87V380L53.09,296.74c9-5.55,35.12-21.1,56.64-27.87,8.36-2.63,26.29,8.58,36.42,16.93l.61.54,0,0c1.33,1.27,2.73,2.47,4.15,3.65l.51.45,0,0a77.38,77.38,0,0,0,10.23,7h0c.8.46,1.61.9,2.42,1.33l.48.25a77,77,0,0,0,7.18,3.27l1,.41.74.29v0a76.07,76.07,0,0,0,10.81,3.1,54.28,54.28,0,0,1,11-14,61.49,61.49,0,0,1-17.19-3.81l-.94-.35c-.61-.24-1.22-.5-1.82-.76l-.92-.4c-.6-.27-1.19-.56-1.77-.85a61.78,61.78,0,0,1-11.53-7.37l-5.54-5a101.91,101.91,0,0,0-16.44-11.74c-13.77-7.83-25.24-10.38-34.09-7.6-18.4,5.79-39.13,17-51.79,24.44l139-249.41V138.46c0,3.87-5.72,14-24.82,22.56l-1.33.71,0,0c-1.85.91-3.66,1.9-5.43,2.94l-.37.2v0a77.64,77.64,0,0,0-10.25,7.35h0l-.07.06a77.68,77.68,0,0,0-5.78,5.45l-.18.19a77.25,77.25,0,0,0-5.11,5.94l-.21.27q-1.16,1.51-2.24,3.07l-.25.38q-1,1.46-1.93,3l-.21.32q-.94,1.54-1.81,3.13l-.41.76c-.54,1-1.06,2-1.55,3l-.23.48c-.45,1-.88,1.94-1.3,2.93l-.44,1.07c-.41,1-.8,2-1.17,3.09-.13.36-.24.73-.37,1.1q-.39,1.17-.75,2.35c-.13.44-.26.87-.39,1.31q-.42,1.51-.78,3c-.12.49-.22,1-.33,1.49q-.23,1.07-.43,2.16c-.12.63-.23,1.27-.33,1.91q-.2,1.29-.37,2.59-.1.84-.19,1.68c-.08.77-.14,1.54-.2,2.31s-.1,1.54-.13,2.31c0,.48,0,.95-.06,1.43h0c0,.58,0,1.16,0,1.74a77,77,0,0,0,.86,11.43A77.76,77.76,0,0,1,141,248.78a61.31,61.31,0,0,1-2.67-17h0c0-.35,0-.69,0-1,0-1.39.06-2.76.15-4.12,0-.36.05-.72.08-1.08.1-1.2.23-2.39.4-3.58,0-.16,0-.33.06-.5.2-1.32.45-2.62.73-3.92.07-.33.15-.66.23-1q.39-1.63.85-3.22c.07-.23.13-.47.2-.7q.58-1.87,1.27-3.69c.11-.28.22-.55.33-.83q.6-1.52,1.29-3l.34-.75q.84-1.77,1.79-3.47l.33-.57q.84-1.47,1.77-2.9l.44-.68c.73-1.1,1.5-2.18,2.3-3.23l.16-.2c.76-1,1.56-2,2.38-2.9l.47-.54A62,62,0,0,1,166.71,179l6.61-3.23c3.52-1.57,34.4-16,34.4-37.28V29.23L347.77,280.55c-12.52-6.12-34.47-17-51.62-25.84-9.81-5.09-16.48-23-18.22-29.5L276,217.68h0a75.9,75.9,0,0,0-3.07-11.92h0l0,0Zm94.88,79.12L213.49,7.91a15.45,15.45,0,0,0-27,0L32.19,284.84a15.36,15.36,0,0,0,5.55,20.66l154.32,92.31a15.47,15.47,0,0,0,15.88,0L362.26,305.5a15.36,15.36,0,0,0,5.55-20.66Zm0,0"/></g><g id="切り取り枠線"><rect class="cls-3" width="400" height="400"/></g></g></svg>