<svg xmlns="http://www.w3.org/2000/svg" viewBox="0 0 400 400"><defs><style>.cls-1{fill:#67b2e8;}.cls-2{fill:#f7a800;}.cls-3{fill:#00c4b3;}.cls-4{fill:none;}</style></defs><title>icon_xem</title><g id="レイヤー_2" data-name="レイヤー 2"><g id="ロゴ"><path class="cls-1" d="M296.17,296.26c0-3.24,1.08-9.73,1.08-14,2.16-36.74-14-68.08-46.47-87.53,0,0-34.58-17.29-42.14-62.68C200,85.54,231.34,41.23,276.72,32.59a104.37,104.37,0,0,1,41.06,2.16c11.89,4.32,24.85,8.64,35.66,14,8.64,4.32,16.21,7.56,23.77,13,0,0,6.48,3.24,6.48,5.4a305.33,305.33,0,0,1-2.16,31.34c-5.4,58.35-20.53,111.3-53,159.93-6.48,10.81-17.29,24.85-24.85,34.58,1.08,4.32-6.48,3.24-7.56,3.24Z"/><path class="cls-2" d="M14.13,66.09A400.3,400.3,0,0,1,93,30.43c36.74-10.81,77.8-15.13,115.63-14,17.29,0,37.82,4.32,55.11,7.56,0,0-62.68,43.22-69.16,76.72-1.08,5.4,4.32,5.4,3.24,10.81,0,8.64-5.4,30.26-7.56,37.82-13,45.39-64.84,67-109.14,54C57.36,196.84,36.83,179.55,26,157.94c-1.08-2.16-7.56-35.66-8.64-48.63-2.16-15.13-3.24-42.14-3.24-43.22Z"/><path class="cls-3" d="M200,382.71c-7.56-3.24-14-8.64-20.53-13-20.53-14-40-29.18-58.35-47.55-17.29-18.37-33.5-38.9-46.47-60.51a339.57,339.57,0,0,1-33.83-65.33s2.5-.58,1.42-1.66l2.16,1.08a88.34,88.34,0,0,0,21.61,13c9.73,4.32,20.53,6.48,30.26,7.56,21.61,2.16,42.14-2.16,60.51-13,9.73-5.4,20.53-9.73,32.42-10.81,41.06-5.4,83.21,17.29,95.09,57.27,6.48,20.53,8.64,44.31-1.08,62.68-1.08,2.16-9.73,17.29-10.81,18.37-20.53,19.45-37.82,32.42-62.68,46.47l-9.73,5.4Z"/><path d="M200,400l-2.16-1.08C107.07,346,40.07,258.44,13.05,156.86a367.67,367.67,0,0,1-9.73-49.71A400.69,400.69,0,0,1,.09,56.36c0-3.24,0-2.16,2.16-4.32C66,16.38,137.32-2,209.73.17c10.81,0,21.61,1.08,32.42,2.16,54,5.4,107,22.69,154.53,49.71l2.16,1.08c1.08,0,1.08,1.08,1.08,2.16v3.24c0,9.73,0,19.45-1.08,29.18-1.08,14-3.24,28.1-5.4,42.14-5.4,30.26-15.13,59.43-27,86.45-33.5,75.64-90.77,139.4-162.09,181.54L200,400ZM17.38,66.09v2.16c0,14,1.08,28.1,2.16,42.14A230.81,230.81,0,0,0,26,148.22c0,2.16,1.08,4.32,2.16,6.48,19.45,42.14,70.24,61.6,113.46,41.06a83.87,83.87,0,0,0,45.39-54,98.11,98.11,0,0,0,3.24-24.85c0-5.4,1.08-10.81,2.16-16.21A101.4,101.4,0,0,1,253,26.11l5.4-2.16s1.08,0,0-1.08c-17.29-3.24-34.58-4.32-53-5.4A364.74,364.74,0,0,0,17.38,66.09Zm282,229.09c1.08,0,1.08-1.08,2.16-2.16,7.56-9.73,15.13-19.45,21.61-30.26A361,361,0,0,0,380.46,98.51c1.08-9.73,1.08-20.53,1.08-30.26V66.09L378.3,65c-7.56-4.32-16.21-8.64-23.77-13-11.89-5.4-23.77-10.81-35.66-14-44.31-14-92.93,10.81-107,55.11a75.47,75.47,0,0,0-2.16,41.06,85.68,85.68,0,0,0,38.9,57.27L253,193.6c31.34,19.45,50.79,54,48.63,91.85-1.08,3.24-1.08,6.48-2.16,9.73ZM200,380.55l2.16-1.08c23.77-14,46.47-31.34,67-49.71a14.92,14.92,0,0,0,3.24-4.32c1.08-2.16,2.16-5.4,4.32-7.56,9.73-19.45,11.89-41.06,5.4-61.6-11.89-40-50.79-64.84-91.85-60.51-10.81,1.08-21.61,5.4-32.42,10.81a99.68,99.68,0,0,1-60.51,13c-10.81-1.08-20.53-3.24-30.26-7.56a88.34,88.34,0,0,1-21.61-13l-2.16-1.08c0,1.08,0,1.08,1.08,2.16a412.16,412.16,0,0,0,31.34,61.6,366.18,366.18,0,0,0,104.82,107A84.77,84.77,0,0,0,200,380.55Z"/></g><g id="切り取り枠線"><rect class="cls-4" width="400" height="400"/></g></g></svg>