<svg xmlns="http://www.w3.org/2000/svg" viewBox="0 0 400 400"><defs><style>.cls-1{fill:#fe6601;}.cls-2{fill:#4e4e4e;}.cls-3{fill:none;}</style></defs><title>icon_xmr</title><g id="レイヤー_2" data-name="レイヤー 2"><g id="ロゴ"><path class="cls-1" d="M0,177.4c3.18-6.7,3.08-14.14,4.7-21.2C24.11,72,93.84,10.19,179.66,1.31c106.56-11,203.7,65,218.41,171.09a204.87,204.87,0,0,1-6.3,85.32c-1.28,4.47-3.12,6.42-8.18,6.3-15.85-.37-31.71-.32-47.56,0-4.84.09-6.34-1-6.32-6.16.21-50.95.13-101.9.13-152.85V96.9c-2.36,2.16-4,3.56-5.56,5.09Q264.4,161.84,204.63,221.81c-3.71,3.74-5.5,3.76-9.23,0Q136,161.94,76.24,102.4c-1.62-1.63-2.72-3.78-4.4-6.14-2.61,3.53-1.81,5.9-1.82,8-.06,50.95-.15,101.9.1,152.85,0,5.68-1.45,7-7,6.88-15.85-.4-31.71-.34-47.56,0-4.52.09-6.17-1.45-7.31-5.62a281.08,281.08,0,0,1-6.87-32.17c-.17-1.14.26-2.64-1.42-3.14Z"/><path class="cls-2" d="M371.37,304c-42.68,63.51-100.43,97-175.49,95.67-71.67-1.26-126.48-35-167-95.3,3.67-.17,5.88-.36,8.08-.36,23.25,0,46.51-.15,69.76.09,4.82,0,6.4-1,6.36-6.16-.26-32.76-.13-65.52-.13-98.36,2.54-.57,3.29,1.64,4.47,2.8,26.17,25.84,52.41,51.61,78.28,77.74,4.16,4.2,6,3.52,9.73-.23,25-25.51,50.24-50.79,75.42-76.13,1.59-1.6,3.27-3.12,5.05-4.82,1.55,2.21.82,4.35.82,6.32.06,30.86.16,61.73-.08,92.59,0,5,1.26,6.32,6.26,6.27C318.42,303.9,344,304,371.37,304Z"/></g><g id="切り取り枠線"><rect class="cls-3" width="400" height="400"/></g></g></svg>