<svg xmlns="http://www.w3.org/2000/svg" xmlns:xlink="http://www.w3.org/1999/xlink" viewBox="0 0 400 400"><defs><style>.cls-1{fill:url(#名称未設定グラデーション_3);}.cls-2{fill:none;}</style><linearGradient id="名称未設定グラデーション_3" x1="119.48" y1="-1957.3" x2="397.07" y2="-2234.88" gradientTransform="matrix(1, 0, 0, -1, 0, -1896.18)" gradientUnits="userSpaceOnUse"><stop offset="0" stop-color="#11aae2"/><stop offset="1" stop-color="#016197"/></linearGradient></defs><title>icon_xrp</title><g id="レイヤー_2" data-name="レイヤー 2"><g id="ロゴ"><path class="cls-1" d="M342.84,243.86c-14.07-8.18-30.18-10.49-45.78-11-13.3-.51-33-9-33-33,0-17.9,14.58-32.48,33-33,15.86-.51,31.71-2.81,45.78-11A83.59,83.59,0,0,0,259.21,11.13a82.34,82.34,0,0,0-41.94,72.12c0,16.11,5.88,31.2,13,45,6.14,11.51,9.21,33.25-12,45.52-15.86,9.21-35.55,3.32-45.27-12.28-8.18-13.3-18.41-25.83-32.48-33.76a84.15,84.15,0,0,0-83.63,0c-25.58,14.58-41.43,42.2-41.43,72.12a83.05,83.05,0,0,0,41.94,72.38,84.15,84.15,0,0,0,83.63,0c14.07-8.18,24-20.46,32.48-33.76,6.91-11,23.79-24.81,45.27-12.53,15.86,9.21,20.72,29.16,11.76,45.52-7.42,13.81-13,28.64-13,45a83.5,83.5,0,1,0,125.32-72.63Z"/></g><g id="切り取り枠線"><rect class="cls-2" width="400" height="400"/></g></g></svg>