<svg xmlns="http://www.w3.org/2000/svg" viewBox="0 0 400 400"><defs><style>.cls-1{fill:#fff;}.cls-2{fill:none;}</style></defs><title>icon_zec</title><g id="レイヤー_2" data-name="レイヤー 2"><g id="ロゴ"><path class="cls-1" d="M200,44.44C114.23,44.44,44.45,114.23,44.45,200S114.23,355.56,200,355.56,355.55,285.77,355.55,200,285.77,44.44,200,44.44Z"/><g id="tgmAOB"><g id="_4o0Zdu.tif" data-name="4o0Zdu.tif"><g id="B0wFFZ.tif"><path d="M200,400C89.72,400,0,310.28,0,200S89.72,0,200,0,400,89.72,400,200,310.28,400,200,400Zm0-355.56C114.23,44.44,44.45,114.23,44.45,200S114.23,355.56,200,355.56,355.55,285.77,355.55,200,285.77,44.44,200,44.44Z"/></g></g></g><path d="M188,249.78h86.67v43.56H221.33c.89,12.44,1.33,24,2.22,36.44H178.67v-36H125.33c0-14.22-1.78-28.44.89-41.78,1.33-7.11,9.33-13.33,14.22-19.56,16.89-20,33.78-39.56,51.11-59.56,6.67-7.56,13.33-14.67,20.89-23.11H129.33V106.22h49.33V69.78h43.11v35.56h53.78c0,14.67,1.78,28.89-.89,42.22-1.33,7.11-9.33,13.33-14.67,19.56-16.89,20-33.78,39.56-51.11,59.56C202.22,234.67,195.56,241.78,188,249.78Z"/></g><g id="切り取り枠線"><rect class="cls-2" width="400" height="400"/></g></g></svg>